<?xml version="1.0" encoding="UTF-8"?>
<svg width="64px" height="64px" viewBox="0 0 64 64" version="1.1" xmlns="http://www.w3.org/2000/svg" xmlns:xlink="http://www.w3.org/1999/xlink">
    <title>网页 icon</title>
    <defs>
        <path d="M0,0 L64,0 L64,64 L0,64 L0,0 Z" id="path-1"></path>
    </defs>
    <g id="网页-icon" stroke="none" fill="none" xlink:href="#path-1" fill-rule="evenodd" stroke-width="1">
        <g id="编组" transform="translate(1.7778, 1.7778)">
            <path d="M42.2148014,18.2279279 C37.8132859,13.8262335 35.2647324,8.07421856 34.9549311,1.90132443 C34.9198593,1.18232256 34.3177927,0.621150363 33.5988201,0.621150363 L26.2220437,0.621150363 C25.503071,0.621150363 24.9010044,1.18232256 24.8659326,1.90132443 C24.5561314,8.06837302 22.0075779,13.8262335 17.6060623,18.2279279 C13.2045467,22.6296223 7.45276542,25.1782794 1.28012206,25.4880932 C0.561149396,25.5231665 0,26.1252575 0,26.8442593 L0,34.2213355 C0,34.9403373 0.561149396,35.5424283 1.28012206,35.5775016 C7.44692011,35.8873154 13.2045467,38.4359725 17.6060623,42.8376669 C22.0075779,47.2393613 24.5561314,52.9913762 24.8659326,59.1642704 C24.9010044,59.8832723 25.503071,60.4444444 26.2220437,60.4444444 L33.5988201,60.4444444 C34.3177927,60.4444444 34.9198593,59.8832723 34.9549311,59.1642704 C35.2647324,52.9972218 37.8132859,47.2393613 42.2148014,42.8376669 C46.616317,38.4359725 52.3680983,35.8873154 58.5407417,35.5775016 C59.2597143,35.5424283 59.8208637,34.9403373 59.8208637,34.2213355 L59.8208637,26.8442593 C59.8208637,26.1252575 59.2597143,25.5231665 58.5407417,25.4880932 C52.3739436,25.1782794 46.616317,22.6296223 42.2148014,18.2279279 Z M31.0268854,40.6748157 C30.4891172,41.4581186 29.3317466,41.4581186 28.7939784,40.6748157 C27.5898453,38.9211526 26.2220437,37.2785548 24.6964187,35.7528679 C23.1707938,34.227181 21.5282628,32.8593238 19.7746709,31.6551418 C18.9913999,31.1173518 18.9913999,29.9599341 19.7746709,29.4221441 C21.5282628,28.2179621 23.1707938,26.8501049 24.6964187,25.324418 C26.2220437,23.7987311 27.5898453,22.1561333 28.7939784,20.4024702 C29.3317466,19.6191673 30.4891172,19.6191673 31.0268854,20.4024702 C32.2310184,22.1561333 33.5988201,23.7987311 35.124445,25.324418 C36.6500699,26.8501049 38.292601,28.2179621 40.0461928,29.4221441 C40.8294639,29.9599341 40.8294639,31.1173518 40.0461928,31.6551418 C38.292601,32.8593238 36.6500699,34.227181 35.124445,35.7528679 C33.5988201,37.2785548 32.2310184,38.9211526 31.0268854,40.6748157 Z" id="形状" fill="#006DFF" fill-rule="nonzero"></path>
            <path d="M49.6994754,2.07639111 L57.0121115,2.07623227 C57.7611005,2.07622165 58.3682847,2.68338858 58.3682953,3.43237757 C58.3682953,3.43239593 58.3682953,3.4324143 58.3682953,3.43243267 L58.3679755,10.744946 C58.3679557,11.4939071 57.7608076,12.101055 57.0118465,12.1010746 L49.6993332,12.1013921 C48.9503442,12.1014117 48.3431528,11.494252 48.3431332,10.745263 C48.3431332,10.7452448 48.3431332,10.7452265 48.3431332,10.7452083 L48.3433301,3.43257489 C48.3433407,2.68360093 48.9505014,2.07644022 49.6994754,2.07642959 Z" id="矩形" fill="#000000" fill-rule="nonzero" transform="translate(53.3557, 7.0888) rotate(-45) translate(-53.3557, -7.0888)"></path>
        </g>
    </g>
</svg>